<?xml version="1.0" encoding="UTF-8"?>
<svg id="Layer_1" data-name="Layer 1" xmlns="http://www.w3.org/2000/svg" viewBox="0 0 22 22">
  <defs>
    <style>
      .cls-1 {
        fill: #223d79;
      }
    </style>
  </defs>
  <path class="cls-1" d="M1.79,14.85c0-.21,0-.43,0-.64h1.73s-.04-.29.31-.32c.74-.07,1.59.06,2.35,0,.24.04.2.28.24.31.14.13.91-.48,1.08-.57.82-.45,1.96-.5,2.83-.21.3.1.79.42,1.06.46,1,.17,2.85-.54,3.11,1.07.01.08-.02.37.06.33l2.44-1.57c1.44-.77,2.45,1.31,1.15,2.23-1.37.79-2.68,1.81-4.06,2.58-2.16,1.2-4.31.29-6.58.15-.19.08-.97.03-1.08.12-.06.05.07.46-.26.52-.75-.07-1.65.1-2.38,0-.22-.03-.19-.15-.24-.19-.13-.08-1.45.2-1.71.19-.03,0-.09-.48-.09-.55,0-.06.03-.09.03-.09l1.73-.2v-3.62h-1.73ZM10.46,15.8h3.02c.06,0,.26-.16.31-.22.3-.38.12-.89-.29-1.04-.69-.11-1.56.09-2.22-.02-.31-.05-.87-.41-1.23-.52-.7-.21-1.6-.17-2.26.18-.44.24-.84.74-1.37.66v3.26c.41.03.84-.1,1.25-.08,2.1.08,4.14,1.05,6.15-.07,1.42-.79,2.8-1.85,4.2-2.69.4-.51-.04-1.27-.62-1.04-1.23.71-2.38,1.63-3.66,2.22h-3.27v-.64ZM5.83,14.53h-1.73v4.14h1.73v-4.14Z"/>
  <path class="cls-1" d="M11.32,3.71c3.07-.3,4.94,3.3,2.9,5.63-1.54,1.77-4.42,1.42-5.53-.63s.25-4.77,2.63-5ZM11.4,4.33c-3.54.32-3.16,5.78.49,5.54s3.26-5.88-.49-5.54Z"/>
  <path class="cls-1" d="M7.94,8.93c-.19-.17-.48-.35-.71-.48-.04-.02-.06-.08-.13-.04.93,2.8,4.03,4.14,6.7,2.83,1.4-.69,2.46-2.16,2.58-3.73.08,0,.6.02.63.04.09.07-.14.92-.18,1.07-.38,1.21-1.25,2.32-2.34,2.97-3.05,1.84-6.98.33-8.01-3.07-.12.12-.41.73-.52.79-.09.05-.46-.19-.54-.28l.03-.11c.29-.27.73-1.37,1.01-1.53.04-.03.07-.04.12-.04.12,0,.66.33.8.42.12.07.87.54.89.59,0,.1-.28.58-.34.56Z"/>
  <path class="cls-1" d="M16.92,5.68c.19-.26.32-.57.55-.81.06-.02.51.23.52.33l-.89,1.44c-.23.45-.78-.02-1.09-.2-.12-.07-.87-.54-.89-.59,0-.08.27-.55.32-.55.24.19.51.32.76.49.03.02.02.07.1.03-.93-2.8-4.02-4.15-6.69-2.84-1.41.69-2.47,2.16-2.59,3.72-.09-.01-.6-.02-.63-.04-.09-.07.14-.92.19-1.07.43-1.36,1.49-2.59,2.78-3.21,3.03-1.46,6.59.12,7.57,3.32Z"/>
  <rect class="cls-1" x="4.61" y="17.38" width=".64" height=".64"/>
  <path class="cls-1" d="M11.98,4.93v.62c.49,0,.93.44.93.93h-.62s-.05-.38-.31-.31v.62c1.23.08,1.22,1.77,0,1.85v.62h-.62v-.62c-.49,0-.93-.44-.93-.93h.62s.05.38.31.31v-.62c-1.23-.08-1.22-1.77,0-1.85v-.62h.62ZM11.37,6.17c-.41.01-.42.6,0,.62v-.62ZM11.98,8.02c.41-.01.42-.6,0-.62v.62Z"/>
</svg>