<?xml version="1.0" encoding="UTF-8"?>
<svg id="Layer_1" data-name="Layer 1" xmlns="http://www.w3.org/2000/svg" viewBox="0 0 22 22">
  <defs>
    <style>
      .cls-1 {
        fill: #223d79;
      }
    </style>
  </defs>
  <path class="cls-1" d="M12.22,2.05c.15.17.4,1.54.54,1.88.07.16.12.24.27.33.19.12,1,.45,1.24.52.34.1.44,0,.74-.14.38-.19.99-.66,1.35-.77.21-.06.24-.04.4.08.19.14,1.22,1.16,1.34,1.34.06.09.1.19.06.29l-.98,1.84c-.01.07,0,.14,0,.22.03.16.46,1.19.56,1.34.05.08.1.14.18.19.56.28,1.34.31,1.89.56.08.04.15.09.21.16l.02,2.15c-.01.12-.13.16-.22.2-.46.21-1.67.36-1.97.62-.22.19-.33.84-.51,1.1l-1.26-1.28c.88-2.66-.49-5.65-3.11-6.65-4.09-1.56-8.19,2.08-7.1,6.32.75,2.95,3.95,4.67,6.84,3.7l1.28,1.26c-.42.29-1.03.23-1.23.75-.13.32-.42,1.78-.6,1.9-.09.06-.3.09-.41.1-.39.03-1.23.04-1.62,0-.08,0-.26-.06-.31-.12-.28-.57-.32-1.39-.57-1.96-.05-.12-.11-.17-.22-.24-.18-.11-1.12-.52-1.32-.57-.1-.03-.19-.03-.3-.02-.24.04-1.08.61-1.37.76-.27.14-.47.33-.74.14-.46-.33-.92-1.02-1.39-1.39-.08-.11-.04-.22,0-.34.15-.48.8-1.18.91-1.63.04-.15.03-.27,0-.42-.04-.2-.39-1.01-.49-1.22-.12-.23-.23-.28-.47-.37-.28-.1-1.7-.41-1.8-.53-.04-.05-.08-.2-.09-.27-.04-.37-.05-1.54,0-1.89.02-.12.09-.21.2-.27.41-.2,1.85-.39,2.07-.67.06-.08.55-1.23.58-1.35.03-.13.03-.26.02-.39-.2-.55-.73-1.13-.93-1.66-.08-.2-.04-.29.08-.45.13-.17,1.16-1.21,1.32-1.31.13-.08.22-.1.37-.05.5.21,1.14.77,1.63.91.15.04.26.05.42.02s1.35-.55,1.44-.64c.06-.06.1-.16.13-.24.2-.51.26-1.31.49-1.77.07-.15.14-.19.3-.21.42-.05,1.38-.04,1.81,0,.09,0,.27.04.33.11Z"/>
  <path class="cls-1" d="M14.94,12.69c1.46,1.53,3.1,2.98,4.53,4.53s.01,3.5-1.83,2.59l-5.14-5.08c-.14-.07-.34.07-.5.1-2.62.54-5.08-1.29-4.96-4.03.01-.27.06-1.02.48-.72.66.47,1.31,1.47,1.96,1.97.29.22.56.07.86-.06.63-.27,1.19-.79,1.52-1.39.16-.29.41-.79.2-1.08l-2.07-2.1c-.02-.09.06-.22.13-.27.09-.06.58-.11.71-.12,2.42-.08,4.29,1.98,4.09,4.37-.03.31-.24.8-.23,1.02,0,.17.13.18.22.27Z"/>
</svg>